<svg xmlns="http://www.w3.org/2000/svg" xmlns:xlink="http://www.w3.org/1999/xlink" width="512" zoomAndPan="magnify" viewBox="0 0 384 383.999986" height="512" preserveAspectRatio="xMidYMid meet" version="1.0"><defs><clipPath id="72c6078f26"><path d="M 15 15.796875 L 369 15.796875 L 369 368.296875 L 15 368.296875 Z M 15 15.796875 " clip-rule="nonzero"/></clipPath></defs><path fill="#19110b" d="M 1075.996094 352.914062 L 1062.371094 196.722656 L 1009.890625 352.914062 L 982.058594 352.914062 L 929.578125 196.722656 L 915.808594 352.914062 L 872.785156 352.914062 L 890.136719 145.65625 L 951.511719 145.65625 L 995.683594 275.753906 L 1040.433594 145.65625 L 1101.808594 145.65625 L 1118.878906 352.914062 Z M 798.921875 352.914062 L 744.996094 261.699219 L 732.519531 261.699219 L 732.519531 352.914062 L 689.496094 352.914062 L 689.496094 145.65625 L 764.652344 145.65625 C 776.023438 145.65625 786.058594 147.265625 794.761719 150.460938 C 803.46875 153.671875 810.421875 158.113281 815.628906 163.796875 C 820.84375 169.496094 824.757812 176.019531 827.386719 183.386719 C 830.019531 190.742188 831.335938 198.824219 831.335938 207.625 C 831.335938 221.492188 827.554688 232.839844 820.011719 241.6875 C 812.457031 250.535156 801.601562 256.484375 787.457031 259.550781 L 849.839844 352.914062 Z M 790.167969 206.191406 C 790.167969 198.4375 787.550781 192.375 782.285156 187.96875 C 777.023438 183.574219 768.90625 181.375 757.90625 181.375 L 732.519531 181.375 L 732.519531 230.855469 L 757.90625 230.855469 C 779.417969 230.855469 790.167969 222.628906 790.167969 206.191406 Z M 598.363281 342.808594 C 582.339844 351.457031 564.246094 355.792969 544.074219 355.792969 C 523.808594 355.792969 505.667969 351.457031 489.65625 342.808594 C 473.628906 334.148438 461.035156 321.695312 451.859375 305.445312 C 442.683594 289.183594 438.089844 270.441406 438.089844 249.222656 C 438.089844 227.894531 442.683594 209.128906 451.859375 192.914062 C 461.035156 176.710938 473.628906 164.304688 489.65625 155.703125 C 505.667969 147.089844 523.808594 142.789062 544.074219 142.789062 C 564.339844 142.789062 582.46875 147.089844 598.433594 155.703125 C 614.402344 164.304688 626.972656 176.710938 636.148438 192.914062 C 645.324219 209.128906 649.917969 227.894531 649.917969 249.222656 C 649.917969 270.441406 645.324219 289.183594 636.148438 305.445312 C 626.972656 321.695312 614.378906 334.148438 598.363281 342.808594 Z M 589.398438 200.445312 C 577.535156 188.402344 562.4375 182.375 544.074219 182.375 C 525.722656 182.375 510.613281 188.402344 498.761719 200.445312 C 486.90625 212.503906 480.972656 228.753906 480.972656 249.222656 C 480.972656 269.785156 486.90625 286.105469 498.761719 298.195312 C 510.613281 310.296875 525.722656 316.347656 544.074219 316.347656 C 562.4375 316.347656 577.535156 310.296875 589.398438 298.195312 C 601.253906 286.105469 607.175781 269.785156 607.175781 249.222656 C 607.175781 228.753906 601.253906 212.503906 589.398438 200.445312 Z M -91.246094 352.914062 L -155.640625 264.847656 L -170.84375 264.847656 L -170.84375 352.914062 L -213.867188 352.914062 L -213.867188 145.65625 L -170.84375 145.65625 L -170.84375 227.132812 L -156.214844 227.132812 L -91.246094 145.65625 L -38.753906 145.65625 L -119.066406 244.769531 L -36.324219 352.914062 Z M -305.011719 342.808594 C -321.023438 351.457031 -339.117188 355.792969 -359.289062 355.792969 C -379.554688 355.792969 -397.695312 351.457031 -413.707031 342.808594 C -429.730469 334.148438 -442.328125 321.695312 -451.5 305.445312 C -460.675781 289.183594 -465.269531 270.441406 -465.269531 249.222656 C -465.269531 227.894531 -460.675781 209.128906 -451.5 192.914062 C -442.328125 176.710938 -429.730469 164.304688 -413.707031 155.703125 C -397.695312 147.089844 -379.554688 142.789062 -359.289062 142.789062 C -339.023438 142.789062 -320.90625 147.089844 -304.929688 155.703125 C -288.960938 164.304688 -276.390625 176.710938 -267.214844 192.914062 C -258.039062 209.128906 -253.445312 227.894531 -253.445312 249.222656 C -253.445312 270.441406 -258.039062 289.183594 -267.214844 305.445312 C -276.390625 321.695312 -288.996094 334.148438 -305.011719 342.808594 Z M -313.960938 200.445312 C -325.828125 188.402344 -340.925781 182.375 -359.289062 182.375 C -377.640625 182.375 -392.746094 188.402344 -404.601562 200.445312 C -416.457031 212.503906 -422.390625 228.753906 -422.390625 249.222656 C -422.390625 269.785156 -416.457031 286.105469 -404.601562 298.195312 C -392.746094 310.296875 -377.640625 316.347656 -359.289062 316.347656 C -340.925781 316.347656 -325.828125 310.296875 -313.960938 298.195312 C -302.109375 286.105469 -296.1875 269.785156 -296.1875 249.222656 C -296.1875 228.753906 -302.109375 212.503906 -313.960938 200.445312 Z M -542.210938 342.808594 C -558.226562 351.457031 -576.316406 355.792969 -596.488281 355.792969 C -616.765625 355.792969 -634.90625 351.457031 -650.921875 342.808594 C -666.933594 334.148438 -679.527344 321.695312 -688.703125 305.445312 C -697.890625 289.183594 -702.472656 270.441406 -702.472656 249.222656 C -702.472656 227.894531 -697.890625 209.128906 -688.703125 192.914062 C -679.527344 176.710938 -666.933594 164.304688 -650.921875 155.703125 C -634.90625 147.089844 -616.765625 142.789062 -596.488281 142.789062 C -576.222656 142.789062 -558.105469 147.089844 -542.140625 155.703125 C -526.175781 164.304688 -513.605469 176.710938 -504.417969 192.914062 C -495.242188 209.128906 -490.660156 227.894531 -490.660156 249.222656 C -490.660156 270.441406 -495.242188 289.183594 -504.417969 305.445312 C -513.605469 321.695312 -526.199219 334.148438 -542.210938 342.808594 Z M -551.175781 200.445312 C -563.03125 188.402344 -578.136719 182.375 -596.488281 182.375 C -614.851562 182.375 -629.960938 188.402344 -641.816406 200.445312 C -653.667969 212.503906 -659.589844 228.753906 -659.589844 249.222656 C -659.589844 269.785156 -653.667969 286.105469 -641.816406 298.195312 C -629.960938 310.296875 -614.851562 316.347656 -596.488281 316.347656 C -578.136719 316.347656 -563.03125 310.296875 -551.175781 298.195312 C -539.320312 286.105469 -533.386719 269.785156 -533.386719 249.222656 C -533.386719 228.753906 -539.320312 212.503906 -551.175781 200.445312 Z M -739.761719 337.359375 C -750.757812 347.734375 -766.914062 352.914062 -788.234375 352.914062 L -873.566406 352.914062 L -873.566406 145.65625 L -806.445312 145.65625 C -784.371094 145.65625 -767.464844 150.660156 -755.75 160.648438 C -744.039062 170.636719 -738.1875 184.585938 -738.1875 202.457031 C -738.1875 211.738281 -740.21875 219.941406 -744.285156 227.058594 C -748.351562 234.179688 -754.34375 239.65625 -762.285156 243.476562 C -736.273438 250.65625 -723.265625 267.773438 -723.265625 294.835938 C -723.265625 312.8125 -728.765625 326.984375 -739.761719 337.359375 Z M -784.933594 187.898438 C -789.714844 183.550781 -796.753906 181.375 -806.023438 181.375 L -832.117188 181.375 L -832.117188 230.140625 L -804.15625 230.140625 C -795.355469 230.140625 -788.765625 227.847656 -784.371094 223.253906 C -779.964844 218.671875 -777.769531 212.644531 -777.769531 205.183594 C -777.769531 198.015625 -780.164062 192.257812 -784.933594 187.898438 Z M -772.609375 270.875 C -777.675781 265.8125 -785.851562 263.273438 -797.128906 263.273438 L -832.117188 263.273438 L -832.117188 316.054688 L -796.273438 316.054688 C -785.464844 316.054688 -777.558594 313.621094 -772.527344 308.746094 C -767.511719 303.871094 -765.007812 297.65625 -765.007812 290.097656 C -765.007812 282.355469 -767.535156 275.941406 -772.609375 270.875 Z M -772.609375 270.875 " fill-opacity="1" fill-rule="evenodd"/><g clip-path="url(#72c6078f26)"><path fill="#f75454" d="M 368.398438 291.910156 C 368.386719 330.132812 344.363281 359.660156 306.742188 367.707031 C 306.332031 367.800781 305.957031 368.097656 305.558594 368.296875 C 304.863281 368.296875 304.171875 368.296875 303.488281 368.296875 C 303.441406 351.667969 303.359375 335.054688 303.429688 318.429688 C 303.441406 317.476562 304.417969 316.183594 305.308594 315.632812 C 313.839844 310.34375 318.09375 302.789062 318.058594 292.753906 C 318.011719 274.53125 318.046875 256.304688 318.046875 237.777344 C 334.765625 237.777344 351.363281 237.777344 368.398438 237.777344 C 368.398438 238.917969 368.398438 240.136719 368.398438 241.347656 C 368.398438 258.199219 368.410156 275.058594 368.398438 291.910156 Z M 318.105469 216.589844 C 318.105469 203.679688 317.730469 191.070312 318.210938 178.496094 C 318.714844 164.773438 330.394531 154.515625 344.140625 154.890625 C 357.402344 155.257812 368.1875 166.125 368.363281 179.589844 C 368.503906 191.503906 368.386719 203.429688 368.386719 215.347656 C 368.386719 215.675781 368.292969 216.015625 368.210938 216.589844 C 351.632812 216.589844 335.046875 216.589844 318.105469 216.589844 Z M 255.90625 359.296875 C 231.25 344.597656 218.054688 322.894531 217.539062 294.304688 C 216.984375 264.167969 217.421875 234.003906 217.433594 203.855469 C 217.433594 203.289062 217.515625 202.738281 217.585938 201.925781 C 234.183594 201.925781 250.679688 201.925781 267.714844 201.925781 C 267.714844 203.183594 267.714844 204.5 267.714844 205.816406 C 267.714844 234.367188 267.761719 262.910156 267.679688 291.460938 C 267.65625 302.074219 271.605469 310.320312 280.898438 315.890625 C 281.847656 316.464844 282.542969 318.242188 282.554688 319.460938 C 282.671875 334.480469 282.625 349.507812 282.636719 364.523438 C 282.636719 365.78125 282.71875 367.039062 282.765625 368.296875 C 282.070312 368.296875 281.390625 368.296875 280.699219 368.296875 C 272.097656 366.214844 263.589844 363.878906 255.90625 359.296875 Z M 217.421875 180.800781 C 217.421875 179.53125 217.421875 178.214844 217.421875 176.898438 C 217.421875 148.78125 217.328125 120.675781 217.46875 92.570312 C 217.527344 81.890625 213.578125 73.699219 204.238281 68.199219 C 203.511719 67.777344 202.722656 66.695312 202.722656 65.910156 C 202.628906 49.28125 202.652344 32.667969 202.652344 15.796875 C 220.6875 18.523438 235.722656 26.242188 247.800781 39.402344 C 260.75 53.5 267.5625 70.199219 267.65625 89.363281 C 267.796875 119.089844 267.714844 148.792969 267.726562 178.519531 C 267.726562 179.191406 267.65625 179.871094 267.597656 180.800781 C 251.019531 180.800781 234.503906 180.800781 217.421875 180.800781 Z M 175.632812 71.984375 C 169.121094 76.050781 167.148438 83.570312 167.171875 91.359375 C 167.253906 110.511719 167.195312 129.675781 167.183594 148.828125 C 167.183594 158.476562 167.183594 168.109375 167.160156 177.746094 C 167.160156 178.757812 167.042969 179.753906 166.972656 180.894531 C 150.324219 180.894531 133.890625 180.894531 116.875 180.894531 C 116.875 179.800781 116.875 178.722656 116.875 177.640625 C 116.886719 148.5 116.78125 119.359375 116.910156 90.21875 C 117.089844 52.902344 143.5 22.175781 180.472656 16.007812 C 180.800781 15.949219 181.152344 15.996094 181.941406 15.996094 C 181.941406 23.304688 181.941406 30.402344 181.941406 37.507812 C 181.941406 44.054688 181.75 50.597656 182 57.132812 C 182.222656 63.171875 181.953125 68.046875 175.632812 71.984375 Z M 116.851562 201.878906 C 133.652344 201.878906 150.160156 201.878906 167.171875 201.878906 C 167.171875 203.21875 167.171875 204.558594 167.171875 205.898438 C 167.171875 234.441406 166.949219 263.003906 167.230469 291.542969 C 167.640625 333.128906 137.683594 362.339844 105.152344 367.765625 C 104.71875 367.835938 104.316406 368.121094 103.894531 368.296875 C 103.214844 368.296875 102.519531 368.296875 101.828125 368.296875 C 101.875 352.246094 101.980469 336.195312 101.910156 320.144531 C 101.886719 317.664062 102.648438 316.359375 104.800781 315.03125 C 113.128906 309.910156 116.875 302.15625 116.875 292.496094 C 116.875 263.707031 116.863281 234.933594 116.851562 206.15625 C 116.851562 204.792969 116.851562 203.441406 116.851562 201.878906 Z M 79.035156 368.296875 C 73.265625 366.460938 67.214844 365.242188 61.777344 362.703125 C 32.851562 349.261719 17.402344 326.464844 16.308594 294.648438 C 15.6875 276.550781 16.191406 258.421875 16.179688 240.304688 C 16.179688 239.515625 16.179688 238.726562 16.179688 237.707031 C 32.992188 237.707031 49.582031 237.707031 66.546875 237.707031 C 66.546875 239.046875 66.546875 240.265625 66.546875 241.5 C 66.546875 258.585938 66.605469 275.671875 66.535156 292.753906 C 66.488281 302.8125 70.8125 310.308594 79.28125 315.632812 C 80.175781 316.195312 81.160156 317.476562 81.160156 318.429688 C 81.230469 335.054688 81.148438 351.667969 81.101562 368.296875 C 80.421875 368.296875 79.726562 368.296875 79.035156 368.296875 Z M 16.191406 216.683594 C 16.191406 210.140625 16.191406 203.761719 16.191406 197.367188 C 16.191406 191.632812 16.132812 185.910156 16.191406 180.179688 C 16.34375 166.558594 26.695312 155.527344 39.867188 154.890625 C 53.625 154.222656 65.535156 164.070312 66.300781 177.910156 C 66.992188 190.695312 66.441406 203.535156 66.441406 216.683594 C 49.558594 216.683594 33.050781 216.683594 16.191406 216.683594 Z M 16.191406 216.683594 " fill-opacity="1" fill-rule="evenodd"/></g></svg>